<svg width="75" height="16" viewBox="0 0 75 16" fill="none" xmlns="http://www.w3.org/2000/svg">
<mask id="path-1-outside-1_453_214" maskUnits="userSpaceOnUse" x="0.159912" y="-0.23999" width="75" height="16" fill="black">
<rect fill="white" x="0.159912" y="-0.23999" width="75" height="16"/>
<path d="M6.13991 15.24C5.15325 15.24 4.28658 15.06 3.53991 14.7C2.80658 14.34 2.22658 13.8267 1.79991 13.16C1.38658 12.4933 1.17325 11.7 1.15991 10.78H3.39991C3.41325 11.4867 3.65325 12.0933 4.11991 12.6C4.59991 13.0933 5.26658 13.34 6.11991 13.34C6.90658 13.34 7.51991 13.16 7.95991 12.8C8.39991 12.4267 8.61991 11.9467 8.61991 11.36C8.61991 10.8667 8.48658 10.46 8.21991 10.14C7.96658 9.80668 7.56658 9.51334 7.01991 9.26001C6.47325 8.99334 5.76658 8.72001 4.89991 8.44001C3.73991 8.06668 2.88658 7.55334 2.33991 6.90001C1.79325 6.23334 1.51991 5.42001 1.51991 4.46001C1.51991 3.35334 1.91991 2.46001 2.71991 1.78001C3.51991 1.10001 4.61991 0.76001 6.01991 0.76001C7.37991 0.76001 8.47325 1.11334 9.29991 1.82001C10.1266 2.51334 10.5532 3.48001 10.5799 4.72001H8.31991C8.31991 4.38668 8.22658 4.06668 8.03991 3.76001C7.85325 3.44001 7.58658 3.18001 7.23991 2.98001C6.89325 2.76668 6.46658 2.66001 5.95991 2.66001C5.33325 2.64668 4.80658 2.80001 4.37991 3.12001C3.95325 3.42668 3.73991 3.84668 3.73991 4.38001C3.73991 5.03334 3.99991 5.54668 4.51991 5.92001C5.03991 6.28001 5.88658 6.65334 7.05991 7.04001C7.79325 7.28001 8.43991 7.57334 8.99991 7.92001C9.57325 8.25334 10.0199 8.68668 10.3399 9.22001C10.6732 9.74001 10.8399 10.4067 10.8399 11.22C10.8399 11.9667 10.6532 12.6467 10.2799 13.26C9.90658 13.86 9.36658 14.34 8.65991 14.7C7.96658 15.06 7.12658 15.24 6.13991 15.24Z"/>
<path d="M17.4121 15V1.00001H22.1521C23.2188 1.00001 24.0988 1.18668 24.7921 1.56001C25.4854 1.92001 25.9988 2.42001 26.3321 3.06001C26.6654 3.70001 26.8321 4.43334 26.8321 5.26001C26.8321 6.08668 26.6654 6.82001 26.3321 7.46001C25.9988 8.10001 25.4854 8.60668 24.7921 8.98001C24.0988 9.34001 23.2188 9.52001 22.1521 9.52001H19.5321V15H17.4121ZM19.5321 7.62001H22.0521C22.9588 7.62001 23.6188 7.40668 24.0321 6.98001C24.4588 6.55334 24.6721 5.98001 24.6721 5.26001C24.6721 4.55334 24.4588 3.98668 24.0321 3.56001C23.6188 3.12001 22.9588 2.90001 22.0521 2.90001H19.5321V7.62001Z"/>
<path d="M37.9843 15.24C36.851 15.24 35.871 14.9467 35.0443 14.36C34.2176 13.7733 33.5843 12.94 33.1443 11.86C32.7043 10.78 32.4843 9.49334 32.4843 8.00001C32.4843 6.50668 32.7043 5.22001 33.1443 4.14001C33.5843 3.06001 34.2176 2.22668 35.0443 1.64001C35.871 1.05334 36.851 0.76001 37.9843 0.76001C39.131 0.76001 40.111 1.05334 40.9243 1.64001C41.751 2.22668 42.3843 3.06001 42.8243 4.14001C43.2643 5.22001 43.4843 6.50668 43.4843 8.00001C43.4843 9.49334 43.2643 10.78 42.8243 11.86C42.3843 12.94 41.751 13.7733 40.9243 14.36C40.111 14.9467 39.131 15.24 37.9843 15.24ZM37.9843 13.24C38.9843 13.24 39.791 12.7933 40.4043 11.9C41.0176 10.9933 41.3243 9.69334 41.3243 8.00001C41.3243 6.30668 41.0176 5.01334 40.4043 4.12001C39.791 3.21334 38.9843 2.76001 37.9843 2.76001C36.971 2.76001 36.1576 3.21334 35.5443 4.12001C34.9443 5.01334 34.6443 6.30668 34.6443 8.00001C34.6443 9.69334 34.9443 10.9933 35.5443 11.9C36.1576 12.7933 36.971 13.24 37.9843 13.24Z"/>
<path d="M52.9165 15V2.90001H49.1565V1.00001H58.7965V2.90001H55.0365V15H52.9165Z"/>
<path d="M70.1087 15.24C69.122 15.24 68.2553 15.06 67.5087 14.7C66.7753 14.34 66.1953 13.8267 65.7687 13.16C65.3553 12.4933 65.142 11.7 65.1287 10.78H67.3687C67.382 11.4867 67.622 12.0933 68.0887 12.6C68.5687 13.0933 69.2353 13.34 70.0887 13.34C70.8753 13.34 71.4887 13.16 71.9287 12.8C72.3687 12.4267 72.5887 11.9467 72.5887 11.36C72.5887 10.8667 72.4553 10.46 72.1887 10.14C71.9353 9.80668 71.5353 9.51334 70.9887 9.26001C70.442 8.99334 69.7353 8.72001 68.8687 8.44001C67.7087 8.06668 66.8553 7.55334 66.3087 6.90001C65.762 6.23334 65.4887 5.42001 65.4887 4.46001C65.4887 3.35334 65.8887 2.46001 66.6887 1.78001C67.4887 1.10001 68.5887 0.76001 69.9887 0.76001C71.3487 0.76001 72.442 1.11334 73.2687 1.82001C74.0953 2.51334 74.522 3.48001 74.5487 4.72001H72.2887C72.2887 4.38668 72.1953 4.06668 72.0087 3.76001C71.822 3.44001 71.5553 3.18001 71.2087 2.98001C70.862 2.76668 70.4353 2.66001 69.9287 2.66001C69.302 2.64668 68.7753 2.80001 68.3487 3.12001C67.922 3.42668 67.7087 3.84668 67.7087 4.38001C67.7087 5.03334 67.9687 5.54668 68.4887 5.92001C69.0087 6.28001 69.8553 6.65334 71.0287 7.04001C71.762 7.28001 72.4087 7.57334 72.9687 7.92001C73.542 8.25334 73.9887 8.68668 74.3087 9.22001C74.642 9.74001 74.8087 10.4067 74.8087 11.22C74.8087 11.9667 74.622 12.6467 74.2487 13.26C73.8753 13.86 73.3353 14.34 72.6287 14.7C71.9353 15.06 71.0953 15.24 70.1087 15.24Z"/>
</mask>
<path d="M6.13991 15.24C5.15325 15.24 4.28658 15.06 3.53991 14.7C2.80658 14.34 2.22658 13.8267 1.79991 13.16C1.38658 12.4933 1.17325 11.7 1.15991 10.78H3.39991C3.41325 11.4867 3.65325 12.0933 4.11991 12.6C4.59991 13.0933 5.26658 13.34 6.11991 13.34C6.90658 13.34 7.51991 13.16 7.95991 12.8C8.39991 12.4267 8.61991 11.9467 8.61991 11.36C8.61991 10.8667 8.48658 10.46 8.21991 10.14C7.96658 9.80668 7.56658 9.51334 7.01991 9.26001C6.47325 8.99334 5.76658 8.72001 4.89991 8.44001C3.73991 8.06668 2.88658 7.55334 2.33991 6.90001C1.79325 6.23334 1.51991 5.42001 1.51991 4.46001C1.51991 3.35334 1.91991 2.46001 2.71991 1.78001C3.51991 1.10001 4.61991 0.76001 6.01991 0.76001C7.37991 0.76001 8.47325 1.11334 9.29991 1.82001C10.1266 2.51334 10.5532 3.48001 10.5799 4.72001H8.31991C8.31991 4.38668 8.22658 4.06668 8.03991 3.76001C7.85325 3.44001 7.58658 3.18001 7.23991 2.98001C6.89325 2.76668 6.46658 2.66001 5.95991 2.66001C5.33325 2.64668 4.80658 2.80001 4.37991 3.12001C3.95325 3.42668 3.73991 3.84668 3.73991 4.38001C3.73991 5.03334 3.99991 5.54668 4.51991 5.92001C5.03991 6.28001 5.88658 6.65334 7.05991 7.04001C7.79325 7.28001 8.43991 7.57334 8.99991 7.92001C9.57325 8.25334 10.0199 8.68668 10.3399 9.22001C10.6732 9.74001 10.8399 10.4067 10.8399 11.22C10.8399 11.9667 10.6532 12.6467 10.2799 13.26C9.90658 13.86 9.36658 14.34 8.65991 14.7C7.96658 15.06 7.12658 15.24 6.13991 15.24Z" fill="#212121"/>
<path d="M17.4121 15V1.00001H22.1521C23.2188 1.00001 24.0988 1.18668 24.7921 1.56001C25.4854 1.92001 25.9988 2.42001 26.3321 3.06001C26.6654 3.70001 26.8321 4.43334 26.8321 5.26001C26.8321 6.08668 26.6654 6.82001 26.3321 7.46001C25.9988 8.10001 25.4854 8.60668 24.7921 8.98001C24.0988 9.34001 23.2188 9.52001 22.1521 9.52001H19.5321V15H17.4121ZM19.5321 7.62001H22.0521C22.9588 7.62001 23.6188 7.40668 24.0321 6.98001C24.4588 6.55334 24.6721 5.98001 24.6721 5.26001C24.6721 4.55334 24.4588 3.98668 24.0321 3.56001C23.6188 3.12001 22.9588 2.90001 22.0521 2.90001H19.5321V7.62001Z" fill="#212121"/>
<path d="M37.9843 15.24C36.851 15.24 35.871 14.9467 35.0443 14.36C34.2176 13.7733 33.5843 12.94 33.1443 11.86C32.7043 10.78 32.4843 9.49334 32.4843 8.00001C32.4843 6.50668 32.7043 5.22001 33.1443 4.14001C33.5843 3.06001 34.2176 2.22668 35.0443 1.64001C35.871 1.05334 36.851 0.76001 37.9843 0.76001C39.131 0.76001 40.111 1.05334 40.9243 1.64001C41.751 2.22668 42.3843 3.06001 42.8243 4.14001C43.2643 5.22001 43.4843 6.50668 43.4843 8.00001C43.4843 9.49334 43.2643 10.78 42.8243 11.86C42.3843 12.94 41.751 13.7733 40.9243 14.36C40.111 14.9467 39.131 15.24 37.9843 15.24ZM37.9843 13.24C38.9843 13.24 39.791 12.7933 40.4043 11.9C41.0176 10.9933 41.3243 9.69334 41.3243 8.00001C41.3243 6.30668 41.0176 5.01334 40.4043 4.12001C39.791 3.21334 38.9843 2.76001 37.9843 2.76001C36.971 2.76001 36.1576 3.21334 35.5443 4.12001C34.9443 5.01334 34.6443 6.30668 34.6443 8.00001C34.6443 9.69334 34.9443 10.9933 35.5443 11.9C36.1576 12.7933 36.971 13.24 37.9843 13.24Z" fill="#212121"/>
<path d="M52.9165 15V2.90001H49.1565V1.00001H58.7965V2.90001H55.0365V15H52.9165Z" fill="#212121"/>
<path d="M70.1087 15.24C69.122 15.24 68.2553 15.06 67.5087 14.7C66.7753 14.34 66.1953 13.8267 65.7687 13.16C65.3553 12.4933 65.142 11.7 65.1287 10.78H67.3687C67.382 11.4867 67.622 12.0933 68.0887 12.6C68.5687 13.0933 69.2353 13.34 70.0887 13.34C70.8753 13.34 71.4887 13.16 71.9287 12.8C72.3687 12.4267 72.5887 11.9467 72.5887 11.36C72.5887 10.8667 72.4553 10.46 72.1887 10.14C71.9353 9.80668 71.5353 9.51334 70.9887 9.26001C70.442 8.99334 69.7353 8.72001 68.8687 8.44001C67.7087 8.06668 66.8553 7.55334 66.3087 6.90001C65.762 6.23334 65.4887 5.42001 65.4887 4.46001C65.4887 3.35334 65.8887 2.46001 66.6887 1.78001C67.4887 1.10001 68.5887 0.76001 69.9887 0.76001C71.3487 0.76001 72.442 1.11334 73.2687 1.82001C74.0953 2.51334 74.522 3.48001 74.5487 4.72001H72.2887C72.2887 4.38668 72.1953 4.06668 72.0087 3.76001C71.822 3.44001 71.5553 3.18001 71.2087 2.98001C70.862 2.76668 70.4353 2.66001 69.9287 2.66001C69.302 2.64668 68.7753 2.80001 68.3487 3.12001C67.922 3.42668 67.7087 3.84668 67.7087 4.38001C67.7087 5.03334 67.9687 5.54668 68.4887 5.92001C69.0087 6.28001 69.8553 6.65334 71.0287 7.04001C71.762 7.28001 72.4087 7.57334 72.9687 7.92001C73.542 8.25334 73.9887 8.68668 74.3087 9.22001C74.642 9.74001 74.8087 10.4067 74.8087 11.22C74.8087 11.9667 74.622 12.6467 74.2487 13.26C73.8753 13.86 73.3353 14.34 72.6287 14.7C71.9353 15.06 71.0953 15.24 70.1087 15.24Z" fill="#212121"/>
<path d="M6.13991 15.24C5.15325 15.24 4.28658 15.06 3.53991 14.7C2.80658 14.34 2.22658 13.8267 1.79991 13.16C1.38658 12.4933 1.17325 11.7 1.15991 10.78H3.39991C3.41325 11.4867 3.65325 12.0933 4.11991 12.6C4.59991 13.0933 5.26658 13.34 6.11991 13.34C6.90658 13.34 7.51991 13.16 7.95991 12.8C8.39991 12.4267 8.61991 11.9467 8.61991 11.36C8.61991 10.8667 8.48658 10.46 8.21991 10.14C7.96658 9.80668 7.56658 9.51334 7.01991 9.26001C6.47325 8.99334 5.76658 8.72001 4.89991 8.44001C3.73991 8.06668 2.88658 7.55334 2.33991 6.90001C1.79325 6.23334 1.51991 5.42001 1.51991 4.46001C1.51991 3.35334 1.91991 2.46001 2.71991 1.78001C3.51991 1.10001 4.61991 0.76001 6.01991 0.76001C7.37991 0.76001 8.47325 1.11334 9.29991 1.82001C10.1266 2.51334 10.5532 3.48001 10.5799 4.72001H8.31991C8.31991 4.38668 8.22658 4.06668 8.03991 3.76001C7.85325 3.44001 7.58658 3.18001 7.23991 2.98001C6.89325 2.76668 6.46658 2.66001 5.95991 2.66001C5.33325 2.64668 4.80658 2.80001 4.37991 3.12001C3.95325 3.42668 3.73991 3.84668 3.73991 4.38001C3.73991 5.03334 3.99991 5.54668 4.51991 5.92001C5.03991 6.28001 5.88658 6.65334 7.05991 7.04001C7.79325 7.28001 8.43991 7.57334 8.99991 7.92001C9.57325 8.25334 10.0199 8.68668 10.3399 9.22001C10.6732 9.74001 10.8399 10.4067 10.8399 11.22C10.8399 11.9667 10.6532 12.6467 10.2799 13.26C9.90658 13.86 9.36658 14.34 8.65991 14.7C7.96658 15.06 7.12658 15.24 6.13991 15.24Z" stroke="#212121" stroke-width="0.4" mask="url(#path-1-outside-1_453_214)"/>
<path d="M17.4121 15V1.00001H22.1521C23.2188 1.00001 24.0988 1.18668 24.7921 1.56001C25.4854 1.92001 25.9988 2.42001 26.3321 3.06001C26.6654 3.70001 26.8321 4.43334 26.8321 5.26001C26.8321 6.08668 26.6654 6.82001 26.3321 7.46001C25.9988 8.10001 25.4854 8.60668 24.7921 8.98001C24.0988 9.34001 23.2188 9.52001 22.1521 9.52001H19.5321V15H17.4121ZM19.5321 7.62001H22.0521C22.9588 7.62001 23.6188 7.40668 24.0321 6.98001C24.4588 6.55334 24.6721 5.98001 24.6721 5.26001C24.6721 4.55334 24.4588 3.98668 24.0321 3.56001C23.6188 3.12001 22.9588 2.90001 22.0521 2.90001H19.5321V7.62001Z" stroke="#212121" stroke-width="0.4" mask="url(#path-1-outside-1_453_214)"/>
<path d="M37.9843 15.24C36.851 15.24 35.871 14.9467 35.0443 14.36C34.2176 13.7733 33.5843 12.94 33.1443 11.86C32.7043 10.78 32.4843 9.49334 32.4843 8.00001C32.4843 6.50668 32.7043 5.22001 33.1443 4.14001C33.5843 3.06001 34.2176 2.22668 35.0443 1.64001C35.871 1.05334 36.851 0.76001 37.9843 0.76001C39.131 0.76001 40.111 1.05334 40.9243 1.64001C41.751 2.22668 42.3843 3.06001 42.8243 4.14001C43.2643 5.22001 43.4843 6.50668 43.4843 8.00001C43.4843 9.49334 43.2643 10.78 42.8243 11.86C42.3843 12.94 41.751 13.7733 40.9243 14.36C40.111 14.9467 39.131 15.24 37.9843 15.24ZM37.9843 13.24C38.9843 13.24 39.791 12.7933 40.4043 11.9C41.0176 10.9933 41.3243 9.69334 41.3243 8.00001C41.3243 6.30668 41.0176 5.01334 40.4043 4.12001C39.791 3.21334 38.9843 2.76001 37.9843 2.76001C36.971 2.76001 36.1576 3.21334 35.5443 4.12001C34.9443 5.01334 34.6443 6.30668 34.6443 8.00001C34.6443 9.69334 34.9443 10.9933 35.5443 11.9C36.1576 12.7933 36.971 13.24 37.9843 13.24Z" stroke="#212121" stroke-width="0.4" mask="url(#path-1-outside-1_453_214)"/>
<path d="M52.9165 15V2.90001H49.1565V1.00001H58.7965V2.90001H55.0365V15H52.9165Z" stroke="#212121" stroke-width="0.4" mask="url(#path-1-outside-1_453_214)"/>
<path d="M70.1087 15.24C69.122 15.24 68.2553 15.06 67.5087 14.7C66.7753 14.34 66.1953 13.8267 65.7687 13.16C65.3553 12.4933 65.142 11.7 65.1287 10.78H67.3687C67.382 11.4867 67.622 12.0933 68.0887 12.6C68.5687 13.0933 69.2353 13.34 70.0887 13.34C70.8753 13.34 71.4887 13.16 71.9287 12.8C72.3687 12.4267 72.5887 11.9467 72.5887 11.36C72.5887 10.8667 72.4553 10.46 72.1887 10.14C71.9353 9.80668 71.5353 9.51334 70.9887 9.26001C70.442 8.99334 69.7353 8.72001 68.8687 8.44001C67.7087 8.06668 66.8553 7.55334 66.3087 6.90001C65.762 6.23334 65.4887 5.42001 65.4887 4.46001C65.4887 3.35334 65.8887 2.46001 66.6887 1.78001C67.4887 1.10001 68.5887 0.76001 69.9887 0.76001C71.3487 0.76001 72.442 1.11334 73.2687 1.82001C74.0953 2.51334 74.522 3.48001 74.5487 4.72001H72.2887C72.2887 4.38668 72.1953 4.06668 72.0087 3.76001C71.822 3.44001 71.5553 3.18001 71.2087 2.98001C70.862 2.76668 70.4353 2.66001 69.9287 2.66001C69.302 2.64668 68.7753 2.80001 68.3487 3.12001C67.922 3.42668 67.7087 3.84668 67.7087 4.38001C67.7087 5.03334 67.9687 5.54668 68.4887 5.92001C69.0087 6.28001 69.8553 6.65334 71.0287 7.04001C71.762 7.28001 72.4087 7.57334 72.9687 7.92001C73.542 8.25334 73.9887 8.68668 74.3087 9.22001C74.642 9.74001 74.8087 10.4067 74.8087 11.22C74.8087 11.9667 74.622 12.6467 74.2487 13.26C73.8753 13.86 73.3353 14.34 72.6287 14.7C71.9353 15.06 71.0953 15.24 70.1087 15.24Z" stroke="#212121" stroke-width="0.4" mask="url(#path-1-outside-1_453_214)"/>
</svg>
